<?xml version="1.0" encoding="UTF-8"?>
<!DOCTYPE svg PUBLIC "-//W3C//DTD SVG 1.1//EN" "http://www.w3.org/Graphics/SVG/1.1/DTD/svg11.dtd">
<!-- Creator: CorelDRAW X6 -->
<svg xmlns="http://www.w3.org/2000/svg" xml:space="preserve" width="8.40278in" height="3.83333in" version="1.1" style="shape-rendering:geometricPrecision; text-rendering:geometricPrecision; image-rendering:optimizeQuality; fill-rule:evenodd; clip-rule:evenodd"
viewBox="0 0 8403 3833"
 xmlns:xlink="http://www.w3.org/1999/xlink">
 <defs>
  <style type="text/css">
   <![CDATA[
    .fil1 {fill:#00FC87;fill-rule:nonzero}
    .fil0 {fill:white;fill-rule:nonzero}
   ]]>
  </style>
 </defs>
 <g id="Layer_x0020_1">
  <metadata id="CorelCorpID_0Corel-Layer"/>
  <path class="fil0" d="M1393 3833l-1393 0 0 -3845 181 0 0 3664 1212 0c266,0 526,-71 732,-201 305,-192 480,-492 480,-826 0,-333 -175,-634 -480,-825 -206,-130 -466,-201 -732,-201l-187 0 0 -181 187 0c299,0 593,81 828,229 359,225 565,582 565,979 0,397 -206,753 -565,979 -235,147 -529,229 -828,229z"/>
  <path class="fil0" d="M1393 3431l-991 0 0 -3443 181 0 0 3262 810 0c191,0 375,-50 518,-139 185,-116 292,-293 292,-485 0,-192 -106,-369 -292,-485 -143,-90 -327,-139 -518,-139l-187 0 0 -181 187 0c225,0 443,59 614,167 239,150 377,383 377,638 0,255 -137,488 -377,638 -172,108 -390,167 -614,167z"/>
  <path class="fil0" d="M1393 3030l-589 0 0 -3041 181 0 0 2860 408 0c241,0 408,-117 408,-223 0,-105 -168,-223 -408,-223l-187 0 0 -181 187 0c330,0 589,177 589,404 0,226 -259,404 -589,404z"/>
  <path class="fil1" d="M1911 711c186,117 292,293 292,485 0,60 -10,118 -30,174 56,26 109,55 161,87 33,-82 51,-170 51,-261 0,-255 -137,-488 -377,-638 -172,-108 -390,-167 -614,-167l-187 0 0 181 187 0c191,0 375,50 518,139z"/>
  <path class="fil1" d="M2125 370c305,192 480,492 480,826 0,139 -31,272 -88,394 49,41 95,85 137,131 86,-160 132,-338 132,-526 0,-397 -206,-753 -565,-979 -235,-147 -529,-229 -828,-229l-187 0 0 181 187 0c266,0 526,71 732,201z"/>
  <path class="fil1" d="M1801 1196c0,15 -3,30 -9,45 59,13 118,29 175,47 10,-30 15,-60 15,-92 0,-226 -259,-404 -589,-404l-187 0 0 181 187 0c218,0 408,104 408,223z"/>
  <path class="fil0" d="M3497 1077l112 0c75,0 126,-34 126,-107l0 -26c0,-73 -48,-107 -124,-107l-114 0 0 240zm0 -349l109 0c63,0 111,-28 111,-98l0 -19c0,-70 -48,-101 -112,-101l-108 0 0 218zm130 -335c126,0 219,75 219,199l0 36c0,77 -40,126 -81,145 55,21 99,76 99,167l0 43c0,133 -97,210 -241,210l-222 0c-20,0 -32,-12 -32,-32l0 -736c0,-21 12,-32 32,-32l226 0z"/>
  <path class="fil0" d="M4095 1162c0,20 -11,32 -32,32l-56 0c-20,0 -32,-12 -32,-32l0 -484c0,-20 12,-32 32,-32l56 0c20,0 32,11 32,32l0 484zm11 -703c0,40 -32,70 -71,70 -40,0 -70,-30 -70,-70 0,-38 32,-71 70,-71 39,0 71,32 71,71z"/>
  <path class="fil0" d="M4483 822c0,-53 -27,-87 -80,-87 -53,0 -80,33 -80,87l0 34c0,53 27,87 80,87 53,0 80,-33 80,-87l0 -34zm-96 386c-39,3 -71,25 -71,68l0 20c0,44 39,70 93,70 53,0 92,-26 92,-70l0 -21c0,-44 -39,-67 -87,-67l-28 0zm252 -494c0,21 -12,32 -32,32l-25 0c13,24 20,48 20,72l0 43c0,109 -77,182 -196,182 -24,0 -45,-2 -65,-7 -5,10 -9,20 -9,33 0,29 20,43 67,43l30 0c104,0 190,53 190,157l0 34c0,102 -84,164 -212,164 -128,0 -213,-62 -213,-164l0 -25c0,-50 26,-91 62,-117 -21,-21 -35,-49 -35,-82 0,-39 13,-68 31,-91 -33,-31 -51,-75 -51,-127l0 -43c0,-110 80,-182 197,-182 21,0 43,3 61,10l147 0c20,0 32,12 32,32l0 36z"/>
  <path class="fil0" d="M5037 1077l112 0c75,0 126,-34 126,-107l0 -26c0,-73 -48,-107 -124,-107l-114 0 0 240zm0 -349l109 0c63,0 111,-28 111,-98l0 -19c0,-70 -48,-101 -112,-101l-108 0 0 218zm130 -335c126,0 219,75 219,199l0 36c0,77 -40,126 -81,145 55,21 99,76 99,167l0 43c0,133 -97,210 -241,210l-222 0c-20,0 -32,-12 -32,-32l0 -736c0,-21 12,-32 32,-32l226 0z"/>
  <path class="fil0" d="M5766 673l0 52c0,21 -3,32 -9,32 -3,0 -6,0 -10,0 -52,0 -111,53 -111,128l0 276c0,21 -11,32 -32,32l-56 0c-20,0 -32,-12 -32,-32l0 -484c0,-20 12,-32 32,-32l49 0c20,0 32,11 32,32l0 33c17,-33 65,-70 117,-70 0,0 19,12 19,32z"/>
  <path class="fil0" d="M5947 849l0 141c0,67 34,110 92,110 58,0 91,-43 91,-110l0 -141c0,-66 -33,-110 -91,-110 -58,0 -92,44 -92,110zm303 -5l0 151c0,127 -83,210 -212,210 -128,0 -212,-82 -212,-210l0 -151c0,-127 83,-209 212,-209 128,0 212,81 212,209z"/>
  <path class="fil0" d="M6508 1013c0,60 16,82 57,82 5,0 10,0 15,-1 22,-2 34,5 34,27l0 41c0,19 -9,32 -27,36 -15,3 -33,5 -55,5 -89,0 -145,-47 -144,-154l1 -304 -46 0c-20,0 -32,-12 -32,-32l0 -36c0,-21 12,-32 32,-32l46 0 1 -154c0,-21 11,-32 32,-32l57 0c20,0 32,12 32,32l-1 154 73 0c20,0 32,11 32,32l0 36c0,20 -11,32 -32,32l-74 0 -1 267z"/>
  <path class="fil0" d="M6823 696c16,-29 55,-61 122,-61 102,0 163,70 163,191l0 335c0,20 -11,32 -32,32l-57 0c-20,0 -32,-12 -32,-32l0 -311c0,-60 -26,-99 -79,-99 -49,0 -84,42 -84,101l0 310c0,20 -11,32 -32,32l-56 0c-20,0 -32,-12 -32,-32l0 -754c0,-21 12,-32 32,-32l56 0c20,0 32,11 32,32l0 289z"/>
  <path class="fil0" d="M7328 840l0 29 168 0 0 -29c0,-63 -27,-101 -83,-101 -53,0 -84,39 -84,101zm0 161c0,61 31,99 83,99 45,0 72,-19 80,-56 5,-19 14,-30 34,-30l56 0c21,0 34,13 30,34 -18,95 -89,155 -198,155 -125,0 -205,-80 -205,-210l0 -150c0,-128 77,-210 205,-210 126,0 203,83 203,216l0 78c0,20 -11,32 -32,32l-257 0 0 40z"/>
  <path class="fil0" d="M7970 673l0 52c0,21 -3,32 -9,32 -3,0 -6,0 -10,0 -52,0 -111,53 -111,128l0 276c0,21 -11,32 -32,32l-56 0c-20,0 -32,-12 -32,-32l0 -484c0,-20 12,-32 32,-32l49 0c20,0 32,11 32,32l0 33c17,-33 65,-70 117,-70 0,0 19,12 19,32z"/>
  <path class="fil0" d="M8401 783c3,21 -9,33 -30,33l-51 0c-20,0 -29,-10 -35,-29 -10,-31 -33,-48 -64,-48 -43,0 -64,18 -64,59 0,46 41,53 99,71 96,26 155,63 157,157l0 11c-2,104 -70,168 -186,168 -108,0 -180,-63 -194,-151 -4,-21 9,-33 30,-33l52 0c19,0 28,10 34,29 11,32 40,51 77,51 40,0 71,-19 71,-62 0,-46 -31,-60 -90,-76 -104,-29 -166,-60 -166,-163 0,-102 63,-165 183,-165 102,0 163,61 176,148z"/>
  <path class="fil0" d="M3497 2287l112 0c75,0 126,-34 126,-107l0 -26c0,-73 -48,-107 -124,-107l-114 0 0 240zm0 -349l109 0c63,0 111,-28 111,-98l0 -19c0,-70 -48,-101 -112,-101l-108 0 0 218zm130 -335c126,0 219,75 219,199l0 36c0,77 -40,126 -81,145 55,21 99,76 99,167l0 43c0,133 -97,210 -241,210l-222 0c-20,0 -32,-12 -32,-32l0 -736c0,-21 12,-32 32,-32l226 0z"/>
  <path class="fil0" d="M4095 2371c0,20 -11,32 -32,32l-56 0c-20,0 -32,-12 -32,-32l0 -484c0,-20 12,-32 32,-32l56 0c20,0 32,11 32,32l0 484zm11 -703c0,40 -32,70 -71,70 -40,0 -70,-30 -70,-70 0,-38 32,-71 70,-71 39,0 71,32 71,71z"/>
  <path class="fil0" d="M4483 2031c0,-53 -27,-87 -80,-87 -53,0 -80,33 -80,87l0 34c0,53 27,87 80,87 53,0 80,-33 80,-87l0 -34zm-96 386c-39,3 -71,25 -71,68l0 20c0,44 39,70 93,70 53,0 92,-26 92,-70l0 -21c0,-44 -39,-67 -87,-67l-28 0zm252 -494c0,21 -12,32 -32,32l-25 0c13,24 20,48 20,72l0 43c0,109 -77,182 -196,182 -24,0 -45,-2 -65,-7 -5,10 -9,20 -9,33 0,29 20,43 67,43l30 0c104,0 190,53 190,157l0 34c0,102 -84,164 -212,164 -128,0 -213,-62 -213,-164l0 -25c0,-50 26,-91 62,-117 -21,-21 -35,-49 -35,-82 0,-39 13,-68 31,-91 -33,-31 -51,-75 -51,-127l0 -43c0,-110 80,-182 197,-182 21,0 43,3 61,10l147 0c20,0 32,12 32,32l0 36z"/>
  <path class="fil0" d="M5363 1791c2,21 -10,33 -31,33l-66 0c-19,0 -29,-11 -33,-31 -11,-53 -46,-84 -99,-84 -67,0 -103,42 -103,107 0,72 45,96 128,125 138,48 226,104 226,242 0,158 -108,231 -247,231 -138,0 -235,-76 -252,-214 -2,-21 10,-33 31,-33l66 0c19,0 29,11 33,31 13,63 59,99 122,99 65,0 118,-28 118,-106 0,-73 -48,-97 -143,-130 -114,-40 -211,-90 -211,-238 0,-128 87,-230 232,-230 128,0 214,73 230,199z"/>
  <path class="fil0" d="M5599 2371c0,20 -11,32 -32,32l-56 0c-20,0 -32,-12 -32,-32l0 -484c0,-20 12,-32 32,-32l56 0c20,0 32,11 32,32l0 484zm11 -703c0,40 -32,70 -71,70 -40,0 -70,-30 -70,-70 0,-38 32,-71 70,-71 39,0 71,32 71,71z"/>
  <path class="fil0" d="M6066 1993c3,21 -9,33 -30,33l-51 0c-20,0 -29,-10 -35,-29 -10,-31 -33,-48 -64,-48 -43,0 -64,18 -64,59 0,46 41,53 99,71 97,27 157,64 157,163 0,107 -68,173 -186,173 -108,0 -180,-63 -194,-151 -4,-21 9,-33 30,-33l52 0c19,0 28,10 34,29 11,32 40,51 77,51 40,0 71,-19 71,-62 0,-46 -31,-60 -90,-76 -104,-29 -166,-60 -166,-163 0,-102 63,-165 183,-165 102,0 163,61 176,148z"/>
  <path class="fil0" d="M6327 2222c0,60 16,82 57,82 5,0 10,0 15,-1 22,-2 34,5 34,27l0 41c0,19 -9,32 -27,36 -15,3 -33,5 -55,5 -89,0 -145,-47 -144,-154l1 -304 -46 0c-20,0 -32,-12 -32,-32l0 -36c0,-21 12,-32 32,-32l46 0 1 -154c0,-21 11,-32 32,-32l57 0c20,0 32,12 32,32l-1 154 73 0c20,0 32,11 32,32l0 36c0,20 -11,32 -32,32l-74 0 -1 267z"/>
  <path class="fil0" d="M6626 2049l0 29 168 0 0 -29c0,-63 -27,-101 -83,-101 -53,0 -84,39 -84,101zm0 161c0,61 31,99 83,99 45,0 72,-19 80,-56 5,-19 14,-30 34,-30l56 0c21,0 34,13 30,34 -18,95 -89,155 -198,155 -125,0 -205,-80 -205,-210l0 -150c0,-128 77,-210 205,-210 126,0 203,83 203,216l0 78c0,20 -11,32 -32,32l-257 0 0 40z"/>
  <path class="fil0" d="M7277 1882l0 52c0,21 -3,32 -9,32 -3,0 -6,0 -10,0 -52,0 -111,53 -111,128l0 276c0,21 -11,32 -32,32l-56 0c-20,0 -32,-12 -32,-32l0 -484c0,-20 12,-32 32,-32l49 0c20,0 32,11 32,32l0 33c17,-33 65,-70 117,-70 0,0 19,12 19,32z"/>
  <path class="fil0" d="M7708 1993c3,21 -9,33 -30,33l-51 0c-20,0 -29,-10 -35,-29 -10,-31 -33,-48 -64,-48 -43,0 -64,18 -64,59 0,46 41,53 99,71 97,27 157,64 157,163 0,107 -68,173 -186,173 -108,0 -180,-63 -194,-151 -4,-21 9,-33 30,-33l52 0c19,0 28,10 34,29 11,32 40,51 77,51 40,0 71,-19 71,-62 0,-46 -31,-60 -90,-76 -104,-29 -166,-60 -166,-163 0,-102 63,-165 183,-165 102,0 163,61 176,148z"/>
  <path class="fil0" d="M7955 2314c10,0 17,-5 17,-15l0 -3c0,-10 -7,-15 -17,-15l-20 0 0 33 20 0zm40 -15c0,14 -6,23 -16,29l15 33c3,8 0,13 -8,13l-1 0c-6,0 -10,-3 -13,-8l-15 -33 -21 0 0 30c0,7 -4,11 -11,11l-1 0c-7,0 -11,-4 -11,-11l0 -89c0,-7 4,-11 11,-11l32 0c23,0 39,11 39,33l0 4zm37 19c0,-44 -33,-77 -79,-77 -46,0 -79,33 -79,77 0,45 33,77 79,77 45,0 79,-33 79,-77zm16 0c0,52 -41,92 -94,92 -55,0 -95,-40 -95,-92 0,-52 40,-92 95,-92 54,0 94,40 94,92z"/>
  <path class="fil1" d="M3425 3417c0,10 -5,14 -14,14l-20 0c-10,0 -14,-5 -14,-14l0 -366c0,-10 5,-14 14,-14l20 0c10,0 14,5 14,14l0 366z"/>
  <path class="fil1" d="M3760 3157c1,9 -4,15 -14,15l-21 0c-9,0 -14,-5 -15,-14 -5,-50 -30,-81 -78,-81 -53,0 -81,40 -81,103l0 110c0,65 29,103 81,103 56,0 80,-35 81,-101l-55 0c-10,0 -14,-5 -14,-14l0 -15c0,-10 5,-14 14,-14l89 0c9,0 14,5 14,14l0 18c0,98 -44,157 -129,157 -82,0 -129,-57 -129,-147l0 -112c0,-89 46,-147 129,-147 77,0 120,50 127,125z"/>
  <path class="fil1" d="M4078 3417c0,10 -5,14 -14,14l-20 0c-8,0 -13,-3 -17,-11l-137 -275 0 271c0,10 -5,14 -14,14l-20 0c-10,0 -14,-5 -14,-14l0 -366c0,-10 5,-14 14,-14l20 0c8,0 13,3 17,11l136 275 0 -271c0,-10 5,-14 14,-14l20 0c10,0 14,5 14,14l0 366z"/>
  <path class="fil1" d="M4213 3417c0,10 -5,14 -14,14l-20 0c-10,0 -14,-5 -14,-14l0 -366c0,-10 5,-14 14,-14l20 0c10,0 14,5 14,14l0 366z"/>
  <path class="fil1" d="M4523 3067c0,9 -5,14 -14,14l-89 0 0 336c0,10 -5,14 -14,14l-20 0c-10,0 -14,-5 -14,-14l0 -336 -89 0c-9,0 -14,-5 -14,-14l0 -16c0,-10 5,-14 14,-14l225 0c9,0 14,5 14,14l0 16z"/>
  <path class="fil1" d="M4628 3417c0,10 -5,14 -14,14l-20 0c-10,0 -14,-5 -14,-14l0 -366c0,-10 5,-14 14,-14l20 0c10,0 14,5 14,14l0 366z"/>
  <path class="fil1" d="M4951 3417c0,10 -5,14 -14,14l-20 0c-8,0 -13,-3 -17,-11l-137 -275 0 271c0,10 -5,14 -14,14l-20 0c-10,0 -14,-5 -14,-14l0 -366c0,-10 5,-14 14,-14l20 0c8,0 13,3 17,11l136 275 0 -271c0,-10 5,-14 14,-14l20 0c10,0 14,5 14,14l0 366z"/>
  <path class="fil1" d="M5285 3157c1,9 -4,15 -14,15l-21 0c-9,0 -14,-5 -15,-14 -5,-50 -30,-81 -78,-81 -53,0 -81,40 -81,103l0 110c0,65 29,103 81,103 56,0 80,-35 81,-101l-55 0c-10,0 -14,-5 -14,-14l0 -15c0,-10 5,-14 14,-14l89 0c10,0 14,5 14,14l0 18c0,98 -44,157 -129,157 -82,0 -129,-57 -129,-147l0 -112c0,-89 46,-147 129,-147 77,0 120,50 127,125z"/>
  <path class="fil1" d="M5525 3226l52 0c47,0 79,-20 79,-66l0 -13c0,-46 -32,-66 -79,-66l-52 0 0 145zm55 -189c73,0 125,34 125,109l0 15c0,75 -52,109 -125,109l-55 0 0 147c0,10 -5,14 -14,14l-20 0c-10,0 -14,-5 -14,-14l0 -366c0,-10 5,-14 14,-14l89 0z"/>
  <path class="fil1" d="M5809 3179l0 110c0,65 31,103 83,103 52,0 83,-37 83,-103l0 -110c0,-64 -30,-103 -83,-103 -53,0 -83,39 -83,103zm216 -1l0 112c0,90 -50,147 -132,147 -82,0 -132,-56 -132,-147l0 -112c0,-89 49,-147 132,-147 83,0 132,58 132,147z"/>
  <path class="fil1" d="M6327 3067c0,9 -5,14 -14,14l-89 0 0 336c0,10 -5,14 -14,14l-20 0c-10,0 -14,-5 -14,-14l0 -336 -89 0c-10,0 -14,-5 -14,-14l0 -16c0,-10 5,-14 14,-14l225 0c10,0 14,5 14,14l0 16z"/>
  <path class="fil1" d="M6577 3067c0,9 -5,14 -14,14l-131 0 0 125 124 0c10,0 14,5 14,14l0 16c0,9 -5,14 -14,14l-124 0 0 137 131 0c10,0 14,5 14,14l0 16c0,10 -5,14 -14,14l-165 0c-10,0 -14,-5 -14,-14l0 -366c0,-10 5,-14 14,-14l165 0c10,0 14,5 14,14l0 16z"/>
  <path class="fil1" d="M6886 3417c0,10 -5,14 -14,14l-20 0c-8,0 -13,-3 -17,-11l-137 -275 0 271c0,10 -5,14 -14,14l-20 0c-10,0 -14,-5 -14,-14l0 -366c0,-10 5,-14 14,-14l20 0c8,0 13,3 17,11l136 275 0 -271c0,-10 5,-14 14,-14l20 0c9,0 14,5 14,14l0 366z"/>
  <path class="fil1" d="M7196 3067c0,9 -5,14 -14,14l-89 0 0 336c0,10 -5,14 -14,14l-20 0c-10,0 -14,-5 -14,-14l0 -336 -89 0c-10,0 -14,-5 -14,-14l0 -16c0,-10 5,-14 14,-14l225 0c9,0 14,5 14,14l0 16z"/>
  <path class="fil1" d="M7301 3417c0,10 -5,14 -14,14l-20 0c-10,0 -14,-5 -14,-14l0 -366c0,-10 5,-14 14,-14l20 0c10,0 14,5 14,14l0 366z"/>
  <path class="fil1" d="M7553 3284l-50 -177 -51 177 101 0zm85 131c3,9 -2,16 -12,16l-20 0c-8,0 -14,-4 -16,-12l-26 -91 -122 0 -26 91c-3,8 -8,12 -16,12l-20 0c-11,0 -15,-6 -12,-16l105 -367c3,-8 8,-12 16,-12l30 0c8,0 14,4 16,12l104 367z"/>
  <path class="fil1" d="M7874 3387c9,0 14,5 14,14l0 16c0,10 -5,14 -14,14l-156 0c-10,0 -14,-5 -14,-14l0 -366c0,-10 5,-14 14,-14l20 0c10,0 14,5 14,14l0 336 122 0z"/>
 </g>
</svg>
